<?xml version="1.0" ?><svg style="enable-background:new 0 0 24 24;" version="1.1" viewBox="0 0 24 24" xml:space="preserve" xmlns="http://www.w3.org/2000/svg" xmlns:xlink="http://www.w3.org/1999/xlink"><style type="text/css">
	.st0{display:none;}
	.st1{display:inline;}
	.st2{opacity:0.2;fill:none;stroke:#000000;stroke-width:5.000000e-02;stroke-miterlimit:10;}
</style><g class="st0" id="grid_system"/><g id="_icons"><g><circle cx="9" cy="9" r="1"/><circle cx="15" cy="9" r="1"/><path d="M14.6,13.1c-1.5,0.5-3.8,0.5-5.3,0c-0.3-0.1-0.7,0-1,0.2C8.1,13.5,8,13.8,8,14.2c0.3,1.6,2,2.8,4,2.8s3.7-1.2,4-2.8    c0.1-0.3-0.1-0.7-0.3-0.9C15.3,13,15,12.9,14.6,13.1z"/><path d="M16,3H8C5.2,3,3,5.2,3,8v4c0,5,4,9,9,9s9-4,9-9V8C21,5.2,18.8,3,16,3z M19,12c0,3.9-3.1,7-7,7s-7-3.1-7-7V8    c0-1.7,1.3-3,3-3h8c1.7,0,3,1.3,3,3V12z"/></g></g></svg>